# xmcd CD database file
#
# Track frame offsets:
#	150
#	23219
#	42530
#	73389
#	91612
#	104839
#	125680
#	146712
#	169299
#
# Disc length: 2570 seconds
#
# Revision: 1
# Processed by: cddbd v1.5PL3 Copyright (c) Steve Scherf et al.
# Submitted via: CDex 1.51
#
DISCID=8a0a0809
DTITLE=Headache BluesTreo - Mr. Puffman
DYEAR=2004
DGENRE=Blues
TTITLE0=Mr. Puffman
TTITLE1=U.N.I.
TTITLE2=Fly High
TTITLE3=I'm In You
TTITLE4=Give It All To You
TTITLE5=Bombmachine
TTITLE6=A Dream
TTITLE7=Locked Inside
TTITLE8=You In The Night
EXTD=YEAR: 2004
EXTT0=
EXTT1=
EXTT2=
EXTT3=
EXTT4=
EXTT5=
EXTT6=
EXTT7=
EXTT8=
PLAYORDER=
